<svg width="22" height="22" viewBox="0 0 22 22" fill="none" xmlns="http://www.w3.org/2000/svg">
<path d="M15.5834 10.0833H6.41671C5.40419 10.0833 4.58337 10.9041 4.58337 11.9167V17.4167C4.58337 18.4292 5.40419 19.25 6.41671 19.25H15.5834C16.5959 19.25 17.4167 18.4292 17.4167 17.4167V11.9167C17.4167 10.9041 16.5959 10.0833 15.5834 10.0833Z" stroke="#64748B" stroke-width="1.5" stroke-linecap="round" stroke-linejoin="round"/>
<path d="M11 15.5833C11.5063 15.5833 11.9167 15.1729 11.9167 14.6667C11.9167 14.1604 11.5063 13.75 11 13.75C10.4938 13.75 10.0834 14.1604 10.0834 14.6667C10.0834 15.1729 10.4938 15.5833 11 15.5833Z" stroke="#64748B" stroke-width="2" stroke-linecap="round" stroke-linejoin="round"/>
<path d="M7.33337 10.0833V6.41667C7.33337 5.44421 7.71968 4.51157 8.40732 3.82394C9.09495 3.13631 10.0276 2.75 11 2.75C11.9725 2.75 12.9051 3.13631 13.5928 3.82394C14.2804 4.51157 14.6667 5.44421 14.6667 6.41667V10.0833" stroke="#64748B" stroke-width="1.5" stroke-linecap="round" stroke-linejoin="round"/>
</svg>
