<svg width="127" height="148" viewBox="0 0 127 148" fill="none" xmlns="http://www.w3.org/2000/svg">
<g opacity="0.5">
<path d="M80.0303 12.2866L84.7129 9.54453C85.2038 9.25706 85.3664 8.63129 85.0759 8.14682C84.7855 7.66235 84.1521 7.50266 83.6612 7.79012L78.9786 10.5322C78.4877 10.8197 78.3251 11.4455 78.6156 11.9299C78.906 12.4144 79.5394 12.5741 80.0303 12.2866Z" fill="url(#paint0_linear_71_2061)"/>
<path d="M75.2511 6.85652L78.4136 2.44689C78.7451 1.9846 78.6391 1.34682 78.1767 1.02237C77.7144 0.697912 77.0708 0.809644 76.7392 1.27193L73.5767 5.68156C73.2452 6.14384 73.3512 6.78162 73.8136 7.10608C74.276 7.43053 74.9196 7.3188 75.2511 6.85652Z" fill="url(#paint1_linear_71_2061)"/>
<path d="M81.3219 18.5907L86.7482 18.5573C87.3171 18.5538 87.7707 18.0932 87.7615 17.5284C87.7522 16.9636 87.2835 16.5086 86.7146 16.5121L81.2883 16.5455C80.7194 16.549 80.2658 17.0097 80.275 17.5745C80.2843 18.1392 80.753 18.5942 81.3219 18.5907Z" fill="url(#paint2_linear_71_2061)"/>
</g>
<path fill-rule="evenodd" clip-rule="evenodd" d="M32.7563 82.3554C35.7357 75.6347 33.2029 71.6816 40.0959 62.0568C41.2085 60.5033 46.494 57.5574 49.8894 53.824C53.203 50.1806 54.6304 45.7285 55.5197 45.783C57.4296 45.8999 62.4432 49.6342 64.2389 50.7246C65.666 51.5911 69.8249 55.3279 76.8605 58.6131C83.8961 61.8984 88.2928 69.9126 94.4781 82.3554C85.6849 80.5661 84.066 86.4492 84.066 86.4492C84.066 86.4492 84.0997 73.9105 81.5814 79.2249C79.063 84.5393 84.066 123.682 84.066 123.682H38.2781L45.132 86.4492C45.132 86.4492 29.7769 89.076 32.7563 82.3554Z" fill="url(#paint3_linear_71_2061)"/>
<mask id="mask0_71_2061" style="mask-type:alpha" maskUnits="userSpaceOnUse" x="32" y="45" width="63" height="79">
<path fill-rule="evenodd" clip-rule="evenodd" d="M32.7563 82.3554C35.7357 75.6347 33.2029 71.6816 40.0959 62.0568C41.2085 60.5033 46.494 57.5574 49.8894 53.824C53.203 50.1806 54.6304 45.7285 55.5197 45.783C57.4296 45.8999 62.4432 49.6342 64.2389 50.7246C65.666 51.5911 69.8249 55.3279 76.8605 58.6131C83.8961 61.8984 88.2928 69.9126 94.4781 82.3554C85.6849 80.5661 84.066 86.4492 84.066 86.4492C84.066 86.4492 84.0997 73.9105 81.5814 79.2249C79.063 84.5393 84.066 123.682 84.066 123.682H38.2781L45.132 86.4492C45.132 86.4492 29.7769 89.076 32.7563 82.3554Z" fill="white"/>
</mask>
<g mask="url(#mask0_71_2061)">
<g style="mix-blend-mode:multiply" opacity="0.184839">
<path fill-rule="evenodd" clip-rule="evenodd" d="M42.7056 55.2285C42.7056 55.2285 63.1962 58.41 65.6451 49.9291C68.094 41.4481 55.9465 42.5343 55.9465 42.5343L42.7056 55.2285Z" fill="url(#paint4_linear_71_2061)"/>
</g>
</g>
<path d="M78.0986 80.8467C87.1729 93.2731 94.436 102.153 98.4282 101.662C103.781 101.679 112.515 92.3126 121.915 84.0242L120.809 75.0035C116.866 83.0618 106.084 86.5824 101.403 90.0256C99.3992 89.5615 94.5292 85.893 85.1041 68.2378L78.0986 80.8467Z" fill="#2969FF"/>
<path fill-rule="evenodd" clip-rule="evenodd" d="M59.1859 13.3099C66.2439 12.8163 71.8304 18.233 71.6637 25.4083L71.341 39.2964C71.1743 46.4718 66.9725 52.5729 61.956 52.9237C56.9394 53.2745 51.9294 47.8175 50.7657 40.7352L48.5133 27.0272C47.3496 19.9448 52.1279 13.8034 59.1859 13.3099Z" fill="#FFD1D1"/>
<path fill-rule="evenodd" clip-rule="evenodd" d="M50.7641 41.7499C50.7641 41.7499 48.4386 39.2699 47.3949 35.9446C45.247 29.1013 44.4174 21.1117 44.7444 17.6722C45.5055 9.6666 55.0634 5.60694 63.8762 9.66659C72.6891 13.7262 74.4365 21.4539 72.305 22.7497C70.1734 24.0455 56.2997 24.5743 53.5319 21.4539C49.0691 22.7497 50.7641 41.7499 50.7641 41.7499Z" fill="url(#paint5_linear_71_2061)"/>
<ellipse cx="51.1008" cy="30.5198" rx="3.09249" ry="3.30744" transform="rotate(6 51.1008 30.5198)" fill="#FFC7C7"/>
<path fill-rule="evenodd" clip-rule="evenodd" d="M6.42407 45.5828C6.42407 45.5828 19.8589 59.157 29.9805 61.978C40.1022 64.7989 65.8225 70.8461 65.8225 70.8461V145.817C65.8225 145.817 42.2724 142.508 29.9805 138.547C17.6887 134.586 15.319 125.495 15.319 125.495L6.42407 45.5828Z" fill="url(#paint6_linear_71_2061)"/>
<path fill-rule="evenodd" clip-rule="evenodd" d="M2.96497 47.5596C2.96497 47.5596 19.8589 60.6397 29.9806 63.4606C40.1023 66.2816 65.8226 70.8463 65.8226 70.8463V145.817C65.8226 145.817 42.2724 142.508 29.9806 138.547C17.6888 134.586 11.8599 127.472 11.8599 127.472L2.96497 47.5596Z" fill="url(#paint7_linear_71_2061)"/>
<path fill-rule="evenodd" clip-rule="evenodd" d="M0 52.0068C0 52.0068 19.8589 62.122 29.9806 64.9429C40.1023 67.7639 65.8226 70.3519 65.8226 70.3519V147.299C65.8226 147.299 42.2724 143.991 29.9806 140.03C17.6888 136.068 8.89494 128.954 8.89494 128.954L0 52.0068Z" fill="url(#paint8_linear_71_2061)"/>
<path fill-rule="evenodd" clip-rule="evenodd" d="M92.8666 58.0404C104.409 55.0498 127 54.374 127 54.374L120.477 131.321C120.477 131.321 102.269 133.508 92.8666 136.233C83.4641 138.957 65.3284 147.299 65.3284 147.299V70.352C65.3284 70.352 81.3238 61.0309 92.8666 58.0404ZM82.5478 87.7213L79.2606 89.5691L79.6961 92.8749L79.1602 95.2277L78.625 97.537L81.1128 99.9243L78.8283 104.194L79.3114 106.565L78.2259 108.496L79.8687 111.136L78.8131 114.327L78.7665 117.4L82.547 116.05L84.5764 115.866L86.3922 114.764L88.6059 113.066L91.4194 113.164L93.0307 113.511L95.8602 111.849L98.1419 112.625L100.58 111.288L102.106 110.612L105.218 111.892L107.872 110.58L111.333 110.01L112.128 107.778L110.909 105.115L112.251 102.044L111.389 99.6656L112.05 96.532L113.148 94.4736L112.317 91.5263L111.485 88.585L112.625 85.7445L112.954 79.5633L106.732 80.3695L102.993 81.8423L99.9285 81.2511C99.9285 81.2511 97.0448 81.7692 95.8602 82.0341C95.1407 82.195 91.3058 85.6984 91.3058 85.6984L87.2004 85.483L84.8619 85.6197L82.5478 87.7213Z" fill="url(#paint9_linear_71_2061)"/>
<path fill-rule="evenodd" clip-rule="evenodd" d="M76.5953 75.5878C76.5953 75.5878 83.1532 72.0967 93.0434 69.2799C102.934 66.463 113.318 66.1169 113.318 66.1169V72.8304C113.318 72.8304 103.135 72.8963 94.2887 75.1002C85.442 77.3041 76.5953 82.473 76.5953 82.473V75.5878Z" fill="url(#paint10_linear_71_2061)"/>
<path fill-rule="evenodd" clip-rule="evenodd" d="M78.0779 125.498C78.0779 125.498 82.1791 122.486 92.0693 119.669C101.959 116.852 111.4 116.687 111.4 116.687L110.905 122.412C110.905 122.412 103.091 122.485 94.2446 124.689C85.3979 126.893 78.0779 131.889 78.0779 131.889V125.498Z" fill="url(#paint11_linear_71_2061)"/>
<path opacity="0.6" d="M12.4143 73.4158C16.274 75.947 18.6881 77.9351 25.5854 80.5278C35.6616 84.3156 45.8254 86.3172 55.8948 86.0088L55.7304 81.1456C46.5955 81.4253 37.0967 79.5077 27.7439 75.992C21.2838 73.5636 14.952 70.5567 11.4504 68.2603L12.4143 73.4158Z" fill="#D1D9E0"/>
<path opacity="0.6" d="M13.4259 84.5541C17.3716 86.9491 19.8533 88.8345 26.8368 91.1849C37.0391 94.6187 46.2789 96.2989 56.3313 95.6393L55.9967 90.7502C46.8772 91.3486 38.3055 89.7637 28.8358 86.5765C22.2948 84.3751 16.3558 81.5737 12.7762 79.4009L13.4259 84.5541Z" fill="#D1D9E0"/>
<path opacity="0.6" d="M14.5717 94.833C18.468 97.1572 22.0142 99.5026 28.8791 101.728C38.908 104.979 46.815 105.477 56.6292 104.638L56.1983 99.7382C47.2949 100.499 40.0648 100.102 30.756 97.0847C24.3262 95.0003 17.3745 91.7919 13.8396 89.6833L14.5717 94.833Z" fill="#D1D9E0"/>
<path opacity="0.6" fill-rule="evenodd" clip-rule="evenodd" d="M15.4436 101.556L17.7929 124.581C17.7929 124.581 26.4226 129.761 36.9075 130.826C35.7168 122.707 35.7168 118.651 35.7168 108.969C23.7302 107.129 15.4436 101.556 15.4436 101.556Z" fill="#D1D9E0"/>
<rect x="121.835" y="72.564" width="5.08282" height="2.19628" rx="1.09814" transform="rotate(14 121.835 72.564)" fill="#FFD1D1"/>
<rect x="121.835" y="75.1995" width="5.08282" height="2.19628" rx="1.09814" transform="rotate(14 121.835 75.1995)" fill="#FFD1D1"/>
<rect x="121.835" y="77.835" width="5.08282" height="2.19628" rx="1.09814" transform="rotate(14 121.835 77.835)" fill="#FFD1D1"/>
<rect x="121.835" y="80.4705" width="5.08282" height="2.19628" rx="1.09814" transform="rotate(14 121.835 80.4705)" fill="#FFD1D1"/>
<rect x="7.48694" y="96.1011" width="4.94163" height="1.97665" rx="0.988327" transform="rotate(-176 7.48694 96.1011)" fill="#FFD1D1"/>
<rect x="7.05786" y="93.668" width="4.94163" height="1.97665" rx="0.988327" transform="rotate(-176 7.05786 93.668)" fill="#FFD1D1"/>
<rect x="6.62878" y="91.2346" width="4.94163" height="1.97665" rx="0.988327" transform="rotate(-176 6.62878 91.2346)" fill="#FFD1D1"/>
<rect x="6.11389" y="88.8088" width="4.94163" height="1.97665" rx="0.988327" transform="rotate(-176 6.11389 88.8088)" fill="#FFD1D1"/>
<defs>
<linearGradient id="paint0_linear_71_2061" x1="85.1653" y1="7.59448" x2="78.289" y2="7.95486" gradientUnits="userSpaceOnUse">
<stop stop-color="#8FA1B0"/>
<stop offset="1" stop-color="#5F7083"/>
</linearGradient>
<linearGradient id="paint1_linear_71_2061" x1="78.0337" y1="0.481445" x2="71.8984" y2="3.60752" gradientUnits="userSpaceOnUse">
<stop stop-color="#8FA1B0"/>
<stop offset="1" stop-color="#5F7083"/>
</linearGradient>
<linearGradient id="paint2_linear_71_2061" x1="88.115" y1="17.0947" x2="81.9797" y2="13.9687" gradientUnits="userSpaceOnUse">
<stop stop-color="#8FA1B0"/>
<stop offset="1" stop-color="#5F7083"/>
</linearGradient>
<linearGradient id="paint3_linear_71_2061" x1="32.2721" y1="85.4671" x2="93.3175" y2="85.4671" gradientUnits="userSpaceOnUse">
<stop stop-color="#345EFF"/>
<stop offset="1" stop-color="#3B93FD"/>
</linearGradient>
<linearGradient id="paint4_linear_71_2061" x1="44.0384" y1="47.6698" x2="65.0488" y2="51.3745" gradientUnits="userSpaceOnUse">
<stop stop-color="#345EFF"/>
<stop offset="1" stop-color="#3B93FD"/>
</linearGradient>
<linearGradient id="paint5_linear_71_2061" x1="62.9133" y1="-7.68811" x2="45.2897" y2="13.6901" gradientUnits="userSpaceOnUse">
<stop stop-color="#5E587E"/>
<stop offset="1" stop-color="#302C48"/>
</linearGradient>
<linearGradient id="paint6_linear_71_2061" x1="49.1539" y1="78.092" x2="15.0839" y2="73.3002" gradientUnits="userSpaceOnUse">
<stop stop-color="#929FAA"/>
<stop offset="1" stop-color="#D4DBE0"/>
</linearGradient>
<linearGradient id="paint7_linear_71_2061" x1="48.1832" y1="79.4277" x2="12.2444" y2="73.9711" gradientUnits="userSpaceOnUse">
<stop stop-color="#B8C6D1"/>
<stop offset="1" stop-color="#E3E7EB"/>
</linearGradient>
<linearGradient id="paint8_linear_71_2061" x1="47.3512" y1="82.9134" x2="9.85728" y2="76.7666" gradientUnits="userSpaceOnUse">
<stop stop-color="#F8F9FA"/>
<stop offset="1" stop-color="#EFF1F3"/>
</linearGradient>
<linearGradient id="paint9_linear_71_2061" x1="120.687" y1="55.8197" x2="62.8184" y2="58.8893" gradientUnits="userSpaceOnUse">
<stop stop-color="#F1F3F7"/>
<stop offset="1" stop-color="#D6DCE2"/>
</linearGradient>
<linearGradient id="paint10_linear_71_2061" x1="113.318" y1="74.295" x2="76.5953" y2="74.295" gradientUnits="userSpaceOnUse">
<stop stop-color="#D9DFE6"/>
<stop offset="1" stop-color="#C1CAD5"/>
</linearGradient>
<linearGradient id="paint11_linear_71_2061" x1="111.4" y1="124.288" x2="78.0779" y2="124.288" gradientUnits="userSpaceOnUse">
<stop stop-color="#D9DFE6"/>
<stop offset="1" stop-color="#C1CAD5"/>
</linearGradient>
</defs>
</svg>
